<?xml version="1.0" encoding="UTF-8"?>
<svg viewBox="0 0 800 460" xmlns="http://www.w3.org/2000/svg" width="1600" height="920" font-family="DejaVu Sans, Arial, sans-serif">
  <defs>
    <marker id="ca-arr2" viewBox="0 0 10 10" refX="9" refY="5" markerWidth="8" markerHeight="8" orient="auto">
      <path d="M 0,0 L 10,5 L 0,10 z" fill="#3F814C"/>
    </marker>
  </defs>
  <rect width="800" height="460" fill="#FFFFFF"/>
  <rect x="20" y="40" width="320" height="370" rx="12" fill="#F5F5F5" stroke="#CCCCCC" stroke-width="1"/>
  <text x="180" y="68" text-anchor="middle" font-size="13" font-weight="700" fill="#777777" letter-spacing="2">CURRENT</text>
  <rect x="36" y="86" width="288" height="148" rx="8" fill="#FFFFFF" stroke="#DDDDDD" stroke-width="1"/>
  <text x="52" y="110" font-size="11" font-weight="700" fill="#888888" letter-spacing="1">CB &#183; BEHAVIOUR</text>
  <text x="52" y="135" font-size="12" fill="#222222">{{CB_LINE_1}}</text>
  <text x="64" y="151" font-size="12" fill="#222222">{{CB_LINE_2}}</text>
  <text x="52" y="173" font-size="12" fill="#222222">{{CB_LINE_3}}</text>
  <text x="64" y="189" font-size="12" fill="#222222">{{CB_LINE_4}}</text>
  <text x="52" y="211" font-size="12" fill="#222222">{{CB_LINE_5}}</text>
  <text x="64" y="227" font-size="12" fill="#222222">{{CB_LINE_6}}</text>
  <rect x="36" y="248" width="288" height="148" rx="8" fill="#FFFFFF" stroke="#DDDDDD" stroke-width="1"/>
  <text x="52" y="272" font-size="11" font-weight="700" fill="#888888" letter-spacing="1">CA &#183; ATTITUDE</text>
  <text x="52" y="296" font-size="12" font-style="italic" fill="#555555">{{CA_QUOTE_1}}</text>
  <text x="52" y="312" font-size="12" font-style="italic" fill="#555555">{{CA_QUOTE_2}}</text>
  <text x="52" y="328" font-size="12" font-style="italic" fill="#555555">{{CA_QUOTE_3}}</text>
  <text x="52" y="358" font-size="12" fill="#222222">{{CA_DECLARATIVE_1}}</text>
  <text x="52" y="376" font-size="12" fill="#222222">{{CA_DECLARATIVE_2}}</text>
  <rect x="460" y="40" width="320" height="370" rx="12" fill="#EAF4ED" stroke="#3F814C" stroke-width="1.5"/>
  <text x="620" y="68" text-anchor="middle" font-size="13" font-weight="700" fill="#3F814C" letter-spacing="2">DESIRED</text>
  <rect x="476" y="86" width="288" height="148" rx="8" fill="#FFFFFF" stroke="#3F814C" stroke-width="1"/>
  <text x="492" y="110" font-size="11" font-weight="700" fill="#3F814C" letter-spacing="1">DB &#183; BEHAVIOUR</text>
  <text x="492" y="135" font-size="12" fill="#222222">{{DB_LINE_1}}</text>
  <text x="504" y="151" font-size="12" fill="#222222">{{DB_LINE_2}}</text>
  <text x="504" y="167" font-size="12" fill="#222222">{{DB_LINE_3}}</text>
  <text x="492" y="189" font-size="12" fill="#222222">{{DB_LINE_4}}</text>
  <text x="504" y="205" font-size="12" fill="#222222">{{DB_LINE_5}}</text>
  <text x="492" y="227" font-size="12" fill="#222222">{{DB_LINE_6}}</text>
  <rect x="476" y="248" width="288" height="148" rx="8" fill="#FFFFFF" stroke="#3F814C" stroke-width="1"/>
  <text x="492" y="272" font-size="11" font-weight="700" fill="#3F814C" letter-spacing="1">DA &#183; ATTITUDE</text>
  <text x="492" y="296" font-size="12" font-style="italic" fill="#555555">{{DA_QUOTE_1}}</text>
  <text x="492" y="312" font-size="12" font-style="italic" fill="#555555">{{DA_QUOTE_2}}</text>
  <text x="492" y="328" font-size="12" font-style="italic" fill="#555555">{{DA_QUOTE_3}}</text>
  <text x="492" y="358" font-size="12" fill="#222222">{{DA_DECLARATIVE_1}}</text>
  <text x="492" y="376" font-size="12" fill="#222222">{{DA_DECLARATIVE_2}}</text>
  <line x1="350" y1="220" x2="450" y2="220" stroke="#3F814C" stroke-width="3" marker-end="url(#ca-arr2)"/>
  <text x="400" y="205" text-anchor="middle" font-size="11" font-weight="700" fill="#3F814C">THE SHIFT</text>
  <text x="400" y="240" text-anchor="middle" font-size="10" fill="#777777">{{SHIFT_FROM}}</text>
  <text x="400" y="254" text-anchor="middle" font-size="10" fill="#777777">{{SHIFT_TO}}</text>
  <text x="400" y="445" text-anchor="middle" font-size="12" font-style="italic" fill="#555555">{{CAPTION}}</text>
</svg>
